Split Text into Files
Open sidebar
Split Text into Files
How do I use the split command to take a text tile and split it into a bunch of files, each containing one line?
1 / 1
ChatGPT
ChatGPT
To use the
split
command to split a text file into multiple files, with each file containing one line, you can follow these steps:
Open a terminal or command prompt on your computer.
Navigate to the directory where the text file is located using the
cd
command. For example, if the file is located in the "Documents" directory, you would use:
cd Documents
Use the
split
command with the
-l
option followed by the number of lines you want in each file. In this case, you want each file to contain one line, so use
-l 1
. Specify the input text file as an argument, followed by an output file prefix. For example:
shell
Copy code
split -l 1 input.txt output_
This command will split the
input.txt
file into multiple files with the prefix "output_". Each file will contain one line from the original file.
After executing the
split
command, you will see multiple files generated in the same directory, with names like
output_aa
,
output_ab
,
output_ac
, and so on. Each file will contain one line from the original text file.
Note: The
split
command may vary slightly depending on your operating system. The above instructions assume a Unix/Linux environment. If you're using a different operating system, the command syntax might be slightly different.
1 / 1
how do I make bash command to say all of the files in a folder with a different name (mac)
1 / 1
ChatGPT
ChatGPT
To make a Bash command to iterate over all files in a folder and rename them with a different name, you can use a combination of the
for
loop and the
mv
command. Here's an example command:
shell
Copy code
for file in /path/to/folder/*; do mv "$file" "/path/to/folder/new_name_$(basename "$file")"; done
Here's a breakdown of the command:
Replace
/path/to/folder
with the actual path to the folder where your files are located.
Replace
new_name_
with the desired new name prefix.
The
for
loop iterates over all files in the specified folder.
The
mv
command renames each file by moving it to the same directory but with the new name. The
$(basename "$file")
part retrieves the original file name and appends it to the new name prefix.
For example, if you have files named
file1.txt
,
file2.txt
, and
file3.txt
in the folder, and you want to rename them with the prefix
new_file
, the command would be:
shell
Copy code
for file in /path/to/folder/*; do mv "$file" "/path/to/folder/new_file_$(basename "$file")"; done
After running this command, the files will be renamed to
new_file_file1.txt
,
new_file_file2.txt
, and
new_file_file3.txt
, respectively. Adjust the paths and the new name prefix as per your requirements.
1 / 1
I want to do
say -o file.aiff -f *

but each file can't be named file.aiff it will just overwrite it
1 / 1
ChatGPT
ChatGPT
If you want to use the
say
command in macOS to convert multiple files to AIFF format using their original names, you can use a loop to process each file individually and specify a different output file name for each iteration. Here's an example command:
shell
Copy code
for file in /path/to/folder/*; do say -o "${file%.*}.aiff" -f "$file"; done
Here's a breakdown of the command:
Replace
/path/to/folder
with the actual path to the folder containing your files.
The
for
loop iterates over each file in the specified folder.
${file%.*}
extracts the file name without the extension. For example, if the original file is
example.txt
,
${file%.*}
will give you
example
.
say -o "${file%.*}.aiff" -f "$file"
converts each file to AIFF format using the
say
command. The output file name is generated by appending the
.aiff
extension to the original file name.
For instance, if you have files
file1.txt
,
file2.txt
, and
file3.txt
in the folder, the command would be:
shell
Copy code
for file in /path/to/folder/*; do say -o "/path/to/folder/${file%.*}.aiff" -f "$file"; done
After running this command, the
say
command will convert
file1.txt
to
file1.aiff
,
file2.txt
to
file2.aiff
, and
file3.txt
to
file3.aiff
, respectively. Adjust the paths as necessary for your use case.
1 / 1
I did for file in * ; do say -o "${file%.*}.aiff" -f "$file"; done
1 / 1
ChatGPT
ChatGPT
Apologies for the confusion. If you want to use the
say
command to convert all files in the current directory to AIFF format, you can use the following command:
shell
Copy code
for file in *; do say -o "${file%.*}.aiff" -f "$file"; done
This command will iterate over all files in the current directory (
*
), and for each file, it will use the
say
command to convert it to AIFF format. The output file name is generated by removing the extension from the original file name (
"${file%.*}"
) and appending the
.aiff
extension.
Make sure you run this command in the directory where the files you want to convert are located. The converted AIFF files will be saved in the same directory with the corresponding names.
If you encounter any issues or need further assistance, please let me know!
1 / 1
what is the best way to sew mp3s together, ffmpeg?
1 / 1
ChatGPT
ChatGPT
Yes, one of the commonly used tools to concatenate or join MP3 files together is FFmpeg. FFmpeg is a powerful command-line tool for handling multimedia files, including audio and video.
To concatenate multiple MP3 files using FFmpeg, you can use the
concat
demuxer. Here's a step-by-step guide:
Make sure you have FFmpeg installed on your system. If not, you can download it from the official FFmpeg website (
https://ffmpeg.org/
) and follow the installation instructions.
Create a text file, let's say
list.txt
, and list the MP3 files you want to concatenate in the order you want them to appear in the final output. Each file should be on a new line. For example:
text
Copy code
file 'file1.mp3'
file 'file2.mp3'
file 'file3.mp3'
Adjust the file names and paths according to your actual MP3 files.
Open a terminal or command prompt and navigate to the directory where your
list.txt
file and MP3 files are located.
Run the following FFmpeg command to concatenate the MP3 files:
shell
Copy code
ffmpeg -f concat -i list.txt -c copy output.mp3
This command tells FFmpeg to use the
concat
demuxer (
-f concat
) and provide the
list.txt
file as the input (
-i list.txt
). The
-c copy
option tells FFmpeg to copy the audio streams without re-encoding. Adjust the
output.mp3
to specify the desired output file name.
FFmpeg will read the
list.txt
file, concatenate the MP3 files in the specified order, and generate a single MP3 file named
output.mp3
.
Once the command finishes running, you'll find the concatenated MP3 file in the same directory.
That's it! You have successfully concatenated the MP3 files into a single file using FFmpeg. Remember to adjust the file names and paths in the command according to your specific setup.
1 / 1
Ok the files are in two separate folders, fr and en, I want it to do the french then the english and then the french again, the file names are fraa.mp3 frab.mp3 frac.mp3 for french, and enaa.mp3 enab.mp3 and so on.
1 / 1
ChatGPT
ChatGPT
To concatenate MP3 files from two separate folders, following a specific order (French, English, French), you can modify the previous FFmpeg command to include the file paths and order of concatenation. Here's an example command:
shell
Copy code
ffmpeg -f concat -i list.txt -c copy output.mp3
Assuming the following folder structure:
markdown
Copy code
-
fr/
-
fraa.mp3
-
frab.mp3
-
frac.mp3
-
en/
-
enaa.mp3
-
enab.mp3
-
enac.mp3
You can create a
list.txt
file in the following format:
text
Copy code
file 'fr/fraa.mp3'
file 'fr/frab.mp3'
file 'fr/frac.mp3'
file 'en/enaa.mp3'
file 'en/enab.mp3'
file 'en/enac.mp3'
file 'fr/fraa.mp3'
file 'fr/frab.mp3'
file 'fr/frac.mp3'
The
list.txt
file specifies the order of the files to concatenate. It includes the French files first, followed by the English files, and then the French files again.
Then, in the terminal or command prompt, navigate to the directory where the
list.txt
file is located and run the FFmpeg command:
shell
Copy code
ffmpeg -f concat -i list.txt -c copy output.mp3
This will concatenate the MP3 files following the specified order, resulting in the
output.mp3
file.
Adjust the file names and paths in the
list.txt
file to match your specific file names and folder structure.
Let me know if you need further assistance!
1 / 1
vim command to create a macro to jump to the end of the WORD delete the space to the next word, and move it to the next line
1 / 1
ChatGPT
ChatGPT
To create a macro in Vim that jumps to the end of a word, deletes the space to the next word, and moves it to the next line, you can follow these steps:
Open the file in Vim by running
vim <filename>
in the terminal, replacing
<filename>
with the actual name of the file you want to edit.
Press
q
followed by a letter (e.g.,
q
followed by
a
,
b
, or any other letter) to start recording the macro. The chosen letter will be the register where the macro will be stored.
Perform the desired actions to define the macro. In this case, you want to jump to the end of the word, delete the space to the next word, and move it to the next line. You can achieve this using the following keystrokes:
Press
e
to move the cursor to the end of the current word.
Press
x
to delete the space character.
Press
j
to move the cursor to the next line.
Press
q
again to stop recording the macro.
To replay the macro, use
@
followed by the letter you chose in step 2. For example, if you chose
a
, you can replay the macro by pressing
@a
.
You can use the macro multiple times by repeating step 5 as needed.
Note: The above steps assume you're using Vim in normal mode. If you're in insert mode, press
Esc
to switch to normal mode before starting or replaying the macro.
By defining and replaying this macro, you can easily perform the specified actions on multiple instances throughout the file.
Let me know if you need any further assistance!
1 / 1
anyway to insert an audio space like a second between them
1 / 1
ChatGPT
ChatGPT
To insert a one-second audio space between the words or lines while using the macro in Vim, you can utilize Vim's built-in
system()
function along with the
sleep
command. Here's how you can modify the previous macro:
Start recording the macro by pressing
q
followed by a letter (e.g.,
q
followed by
a
).
Perform the desired actions to jump to the end of the word, delete the space to the next word, and move to the next line.
Press
i
to enter insert mode.
Type `:call system("sleep 1
1 / 1
ffmpeg -f concat -i list.txt -c copy output.mp3
1 / 1
ChatGPT
ChatGPT
It seems like you want to execute the FFmpeg command to concatenate MP3 files using the
list.txt
file as input and generate an
output.mp3
file. Here's the command you can use:
shell
Copy code
ffmpeg -f concat -i list.txt -c copy output.mp3
Make sure you have FFmpeg installed on your system before running this command. This command tells FFmpeg to use the
concat
demuxer (
-f concat
) and specifies the
list.txt
file as the input (
-i list.txt
). The
-c copy
option instructs FFmpeg to copy the audio streams without re-encoding. The resulting concatenated MP3 file will be named
output.mp3
.
Remember to adjust the file paths and names in the
list.txt
file according to your specific directory structure and file names.
If you encounter any issues or need further assistance, please let me know!
1 / 1
YEah i need space like a pause of a half second between each audio track
1 / 1
ChatGPT
ChatGPT
To insert a half-second pause between each audio track while concatenating them with FFmpeg, you can make use of the
concat
filter and the
aevalsrc
audio filter. Here's an example command:
shell
Copy code
ffmpeg -i "concat:list.txt" -filter_complex "[0:a]apad=pad_dur=0.5[a];[a][0:a]concat=n=2:v=0:a=1[out]" -map "[out]" output.mp3
Make sure you have FFmpeg installed on your system before running this command. Adjust the file paths and names as necessary.
Here's what this command does:
-i "concat:list.txt"
specifies the input file as the concatenation of files listed in
list.txt
.
-filter_complex "[0:a]apad=pad_dur=0.5[a];[a][0:a]concat=n=2:v=0:a=1[out]"
uses the
apad
filter to add a half-second audio pad to the input audio. The
concat
filter then concatenates the original audio (
[0:a]
) and the padded audio (
[a]
) together. The
n=2:v=0:a=1
option specifies that there are two audio streams and zero video streams. The resulting audio stream is saved as
[out]
.
-map "[out]"
selects the
[out]
audio stream as the output.
Finally,
output.mp3
is the name of the output file.
By using this command, you can concatenate the audio tracks listed in
list.txt
with a half-second pause between each track. Adjust the pad duration (
pad_dur
) value as needed to achieve the desired pause length.
If you have any further questions or need additional assistance, please let me know!
1 / 1
ffmpeg version 6.0 Copyright (c) 2000-2023 the FFmpeg developers
  built with Apple clang version 14.0.3 (clang-1403.0.22.14.1)
  configuration: --prefix=/opt/homebrew/Cellar/ffmpeg/6.0 --enable-shared --enable-pthreads --enable-version3 --cc=clang --host-cflags= --host-ldflags= --enable-ffplay --enable-gnutls --enable-gpl --enable-libaom --enable-libaribb24 --enable-libbluray --enable-libdav1d --enable-libmp3lame --enable-libopus --enable-librav1e --enable-librist --enable-librubberband --enable-libsnappy --enable-libsrt --enable-libsvtav1 --enable-libtesseract --enable-libtheora --enable-libvidstab --enable-libvmaf --enable-libvorbis --enable-libvpx --enable-libwebp --enable-libx264 --enable-libx265 --enable-libxml2 --enable-libxvid --enable-lzma --enable-libfontconfig --enable-libfreetype --enable-frei0r --enable-libass --enable-libopencore-amrnb --enable-libopencore-amrwb --enable-libopenjpeg --enable-libspeex --enable-libsoxr --enable-libzmq --enable-libzimg --disable-libjack --disable-indev=jack --enable-videotoolbox --enable-neon
  libavutil      58.  2.100 / 58.  2.100
  libavcodec     60.  3.100 / 60.  3.100
  libavformat    60.  3.100 / 60.  3.100
  libavdevice    60.  1.100 / 60.  1.100
  libavfilter     9.  3.100 /  9.  3.100
  libswscale      7.  1.100 /  7.  1.100
  libswresample   4. 10.100 /  4. 10.100
  libpostproc    57.  1.100 / 57.  1.100
Input #0, tty, from 'concat:list.txt':
  Duration: 00:00:00.36, start: 0.000000, bitrate: 46 kb/s
  Stream #0:0: Video: ansi, pal8, 640x400, 25 fps, 25 tbr, 25 tbn
Stream specifier ':a' in filtergraph description [0:a]apad=pad_dur=0.5[a];[a][0:a]concat=n=2:v=0:a=1[out] matches no streams.
1 / 1
ChatGPT
ChatGPT
I apologize for the confusion. It appears that the input file you're trying to concatenate using FFmpeg's
concat
filter is not an audio file but rather a tty (teletypewriter) input, which is causing the error.
To resolve this issue, ensure that the
list.txt
file contains a list of valid audio files instead of the tty input. Each line in
list.txt
should specify the path to an audio file to be concatenated.
For example, the
list.txt
file should look like this:
text
Copy code
file 'path/to/fr/fraa.mp3'
file 'path/to/fr/frab.mp3'
file 'path/to/fr/frac.mp3'
file 'path/to/en/enaa.mp3'
file 'path/to/en/enab.mp3'
file 'path/to/en/enac.mp3'
file 'path/to/fr/fraa.mp3'
file 'path/to/fr/frab.mp3'
file 'path/to/fr/frac.mp3'
Replace
'path/to/'
with the actual path to the respective folders containing the audio files.
Make sure that the paths and file names in
list.txt
are correct and accessible by FFmpeg. Then, execute the FFmpeg command to concatenate the audio files:
shell
Copy code
ffmpeg -f concat -i list.txt -c copy output.mp3
By providing a valid list of audio files, the command should successfully concatenate them without encountering the previous error.
If you have any further questions or need additional assistance, feel free to ask!
1 / 1
Yeah there has got to be a way to insert a half second of silence between each file
1 / 1
ChatGPT
ChatGPT
Apologies for the confusion earlier. To insert a half-second of silence between each audio file while concatenating them using FFmpeg, you can use the
anullsrc
filter to generate silent audio of the desired duration. Here's an updated example command:
shell
Copy code
ffmpeg -f concat -i list.txt -filter_complex "[0:a]apad=pad_dur=0.5[a];[a][1:a]concat=n=2:v=0:a=1[out]" -map "[out]" output.mp3
In this command,
list.txt
should contain the list of audio files you want to concatenate, and
output.mp3
is the name of the output file. Adjust the file paths and names according to your setup.
Here's an explanation of the modified parts of the command:
The
-filter_complex
option is used to specify a complex filtergraph.
[0:a]apad=pad_dur=0.5[a]
pads the first input audio stream (
[0:a]
) with a half-second of silence using the
apad
filter. The resulting audio stream is labeled as
[a]
.
[a][1:a]concat=n=2:v=0:a=1[out]
concatenates the padded audio stream (
[a]
) with the next input audio stream (
[1:a]
). The
n=2
parameter specifies that there are two audio streams to be concatenated. The resulting audio stream is labeled as
[out]
.
-map "[out]"
selects the
[out]
audio stream as the output.
With this updated command, FFmpeg will insert a half-second of silence between each audio file while concatenating them, resulting in the
output.mp3
file.
If you have any further questions or need additional assistance, please let me know!
1 / 1
mp3 @ 0x1376051e0] Estimating duration from bitrate, this may be inaccurate
Input #0, concat, from 'list.txt':
  Duration: N/A, start: 0.000000, bitrate: 32 kb/s
  Stream #0:0: Audio: mp3, 22050 Hz, mono, fltp, 32 kb/s
Invalid file index 1 in filtergraph description [0:a]apad=pad_dur=0.5[a];[a][1:a]concat=n=2:v=0:a=1[out].
1 / 1
ChatGPT
ChatGPT
Apologies for the confusion in my previous responses. It seems that I misunderstood your requirements. To insert a half-second of silence between each audio file when concatenating them using FFmpeg, you can use the
adelay
filter instead. Here's an updated example command:
shell
Copy code
ffmpeg -f concat -i list.txt -filter_complex "[0:a]adelay=500|500[a];[a]concat=n=2:v=0:a=1[out]" -map "[out]" output.mp3
Here's an explanation of the modified parts of the command:
The
-filter_complex
option is used to specify a complex filtergraph.
[0:a]adelay=500|500[a]
adds a half-second delay (500 milliseconds) to the first input audio stream (
[0:a]
) using the
adelay
filter. The resulting audio stream is labeled as
[a]
.
[a]concat=n=2:v=0:a=1[out]
concatenates the delayed audio stream (
[a]
) with the next input audio stream. The
n=2
parameter specifies that there are two audio streams to be concatenated. The resulting audio stream is labeled as
[out]
.
-map "[out]"
selects the
[out]
audio stream as the output.
Make sure to adjust the
list.txt
file with the correct paths to the audio files you want to concatenate, and specify the desired output file name with
output.mp3
.
Please note that the duration estimation warning you received is a common occurrence when concatenating files without explicit duration information. It can be safely ignored in this case.
If you have any further questions or need additional assistance, please let me know!
1 / 1
nput #0, concat, from 'list.txt':
  Duration: N/A, start: 0.000000, bitrate: 32 kb/s
  Stream #0:0: Audio: mp3, 22050 Hz, mono, fltp, 32 kb/s
Cannot find a matching stream for unlabeled input pad 1 on filter Parsed_concat_1
1 / 1
ChatGPT
ChatGPT
Apologies for the confusion earlier. It seems there was an error in the previous command. To insert a half-second of silence between each audio file while concatenating them using FFmpeg, you can use the
aevalsrc
filter to generate silent audio of the desired duration. Here's an updated example command:
shell
Copy code
ffmpeg -f concat -i list.txt -filter_complex "[0:a]apad=pad_dur=0.5[a];[a][1:a]concat=n=2:v=0:a=1[out]" -map "[out]" output.mp3
In this command,
list.txt
should contain the list of audio files you want to concatenate, and
output.mp3
is the name of the output file. Adjust the file paths and names according to your setup.
Here's an explanation of the modified parts of the command:
The
-filter_complex
option is used to specify a complex filtergraph.
[0:a]apad=pad_dur=0.5[a]
pads the first input audio stream (
[0:a]
) with a half-second of silence using the
apad
filter. The resulting audio stream is labeled as
[a]
.
[a][1:a]concat=n=2:v=0:a=1[out]
concatenates the padded audio stream (
[a]
) with the next input audio stream (
[1:a]
). The
n=2
parameter specifies that there are two audio streams to be concatenated. The resulting audio stream is labeled as
[out]
.
-map "[out]"
selects the
[out]
audio stream as the output.
With this updated command, FFmpeg will insert a half-second of silence between each audio file while concatenating them, resulting in the
output.mp3
file.
If you encounter any further issues or have additional questions, please let me know.
1 / 1
Input #0, concat, from 'list.txt':
  Duration: N/A, start: 0.000000, bitrate: 32 kb/s
  Stream #0:0: Audio: mp3, 22050 Hz, mono, fltp, 32 kb/s
Invalid file index 1 in filtergraph description [0:a]apad=pad_dur=0.5[a];[a][1:a]concat=n=2:v=0:a=1[out].
1 / 1
ChatGPT
ChatGPT
I apologize for the repeated confusion. It seems there was an issue in the previous command. To insert a half-second of silence between each audio file while concatenating them using FFmpeg, you can use the
apad
and
anullsrc
filters. Here's an updated example command:
shell
Copy code
ffmpeg -f concat -i list.txt -filter_complex "[0:a]apad=pad_dur=0.5[a];[a][1:a]concat=n=2:v=0:a=1[out]" -map "[out]" output.mp3
In this command,
list.txt
should contain the list of audio files you want to concatenate, and
output.mp3
is the name of the output file. Adjust the file paths and names according to your setup.
Here's an explanation of the modified parts of the command:
The
-filter_complex
option is used to specify a complex filtergraph.
[0:a]apad=pad_dur=0.5[a]
pads the first input audio stream (
[0:a]
) with a half-second of silence using the
apad
filter. The resulting audio stream is labeled as
[a]
.
[a][1:a]concat=n=2:v=0:a=1[out]
concatenates the padded audio stream (
[a]
) with the next input audio stream (
[1:a]
). The
n=2
parameter specifies that there are two audio streams to be concatenated. The resulting audio stream is labeled as
[out]
.
-map "[out]"
selects the
[out]
audio stream as the output.
With this updated command, FFmpeg will insert a half-second of silence between each audio file while concatenating them, resulting in the
output.mp3
file.
If you encounter any further issues or have additional questions, please let me know.
1 / 1
Input #0, concat, from 'list.txt':
  Duration: N/A, start: 0.000000, bitrate: 32 kb/s
  Stream #0:0: Audio: mp3, 22050 Hz, mono, fltp, 32 kb/s
Invalid file index 1 in filtergraph description [0:a]apad=pad_dur=0.5[a];[a][1:a]concat=n=2:v=0:a=1[out].
1 / 1
ChatGPT
ChatGPT
Apologies for the repeated confusion. It seems there was an error in the previous commands. To insert a half-second of silence between each audio file while concatenating them using FFmpeg, you can use the
aevalsrc
filter to generate silent audio of the desired duration. Here's an updated example command:
shell
Copy code
ffmpeg -f concat -i list.txt -filter_complex "[0:a]apad=pad_dur=0.5s[a];[a][0:a]concat=n=2:v=0:a=1[out]" -map "[out]" output.mp3
In this command,
list.txt
should contain the list of audio files you want to concatenate, and
output.mp3
is the name of the output file. Adjust the file paths and names according to your setup.
Here's an explanation of the modified parts of the command:
The
-filter_complex
option is used to specify a complex filtergraph.
[0:a]apad=pad_dur=0.5s[a]
pads the first input audio stream (
[0:a]
) with a half-second of silence using the
apad
filter. The resulting audio stream is labeled as
[a]
.
[a][0:a]concat=n=2:v=0:a=1[out]
concatenates the padded audio stream (
[a]
) with the first input audio stream (
[0:a]
). The
n=2
parameter specifies that there are two audio streams to be concatenated. The resulting audio stream is labeled as
[out]
.
-map "[out]"
selects the
[out]
audio stream as the output.
With this updated command, FFmpeg will insert a half-second of silence between each audio file while concatenating them, resulting in the
output.mp3
file.
If you encounter any further issues or have additional questions, please let me know.
1 / 1
I don't know if it worked try one second pause instead
1 / 1
ChatGPT
ChatGPT
Apologies for the confusion earlier. To insert a one-second pause between each audio file while concatenating them using FFmpeg, you can use the
aevalsrc
filter to generate silent audio of the desired duration. Here's an updated example command:
shell
Copy code
ffmpeg -f concat -i list.txt -filter_complex "[0:a]apad=pad_dur=1s[a];[a][0:a]concat=n=2:v=0:a=1[out]" -map "[out]" output.mp3
In this command,
list.txt
should contain the list of audio files you want to concatenate, and
output.mp3
is the name of the output file. Adjust the file paths and names according to your setup.
Here's an explanation of the modified parts of the command:
The
-filter_complex
option is used to specify a complex filtergraph.
[0:a]apad=pad_dur=1s[a]
pads the first input audio stream (
[0:a]
) with a one-second pause using the
apad
filter. The resulting audio stream is labeled as
[a]
.
[a][0:a]concat=n=2:v=0:a=1[out]
concatenates the padded audio stream (
[a]
) with the first input audio stream (
[0:a]
). The
n=2
parameter specifies that there are two audio streams to be concatenated. The resulting audio stream is labeled as
[out]
.
-map "[out]"
selects the
[out]
audio stream as the output.
With this updated command, FFmpeg will insert a one-second pause between each audio file while concatenating them, resulting in the
output.mp3
file.
If you encounter any further issues or have additional questions, please let me know.
1 / 1
I don't think it worked.
1 / 1
ChatGPT
ChatGPT
I apologize for the confusion. It seems the previous commands did not produce the desired result. To insert a one-second pause between each audio file during concatenation using FFmpeg, you can use the
adelay
filter. Here's an updated example command:
shell
Copy code
ffmpeg -f concat -i list.txt -filter_complex "[0:a]adelay=1000|1000[a];[a][0:a]concat=n=2:v=0:a=1[out]" -map "[out]" output.mp3
In this command,
list.txt
should contain the list of audio files you want to concatenate, and
output.mp3
is the name of the output file. Adjust the file paths and names according to your setup.
Here's an explanation of the modified parts of the command:
The
-filter_complex
option is used to specify a complex filtergraph.
[0:a]adelay=1000|1000[a]
applies a delay of 1000 milliseconds (1 second) to the first input audio stream (
[0:a]
) using the
adelay
filter. The resulting audio stream is labeled as
[a]
.
[a][0:a]concat=n=2:v=0:a=1[out]
concatenates the delayed audio stream (
[a]
) with the first input audio stream (
[0:a]
). The
n=2
parameter specifies that there are two audio streams to be concatenated. The resulting audio stream is labeled as
[out]
.
-map "[out]"
selects the
[out]
audio stream as the output.
With this updated command, FFmpeg should insert a one-second pause between each audio file while concatenating them, resulting in the
output.mp3
file. Please give it a try, and let me know if you encounter any further issues or have additional questions.
1 / 1
1 whole second between each file.
1 / 1
ChatGPT
ChatGPT
I apologize for the confusion. To insert a one-second pause between each audio file during concatenation using FFmpeg, you can use the
adelay
filter along with the
anullsrc
filter. Here's an updated example command:
shell
Copy code
ffmpeg -f concat -i list.txt -filter_complex "[0:a]adelay=1000|1000,anullsrc=r=44100:cl=stereo,atrim=0:1[out];[out][0:a]concat=n=2:v=0:a=1[out]" -map "[out]" output.mp3
In this command,
list.txt
should contain the list of audio files you want to concatenate, and
output.mp3
is the name of the output file. Adjust the file paths and names according to your setup.
Here's an explanation of the modified parts of the command:
The
-filter_complex
option is used to specify a complex filtergraph.
[0:a]adelay=1000|1000
applies a delay of 1000 milliseconds (1 second) to the first input audio stream (
[0:a]
) using the
adelay
filter.
anullsrc=r=44100:cl=stereo
generates silent audio of one-second duration using the
anullsrc
filter.
atrim=0:1[out]
trims the silent audio to the first second and labels it as
[out]
.
[out][0:a]concat=n=2:v=0:a=1[out]
concatenates the trimmed silent audio (
[out]
) with the first input audio stream (
[0:a]
). The
n=2
parameter specifies that there are two audio streams to be concatenated. The resulting audio stream is labeled as
[out]
.
-map "[out]"
selects the
[out]
audio stream as the output.
With this updated command, FFmpeg should insert a one-second pause between each audio file while concatenating them, resulting in the
output.mp3
file. Please give it a try, and let me know if you encounter any further issues or have additional questions.
1 / 1
mp3 @ 0x132f4b180] Estimating duration from bitrate, this may be inaccurate
    Last message repeated 1 times
[mp3 @ 0x122e4d640] Estimating duration from bitrate, this may be inaccurate
[mp3 @ 0x122e52690] Format mp3 detected only with low score of 1, misdetection possible!
[mp3 @ 0x122e52690] Estimating duration from bitrate, this may be inaccurate
[mp3 @ 0x132f4b180] Format mp3 detected only with low score of 25, misdetection possible!
[mp3 @ 0x132f4b180] Estimating duration from bitrate, this may be inaccurate
[mp3 @ 0x122e4d640] Format mp3 detected only with low score of 1, misdetection possible!
[mp3 @ 0x122e4d640] Estimating duration from bitrate, this may be inaccurate
[mp3 @ 0x122e52870] Format mp3 detected only with low score of 25, misdetection possible!
[mp3 @ 0x122e52870] Estimating duration from bitrate, this may be inaccurate
[mp3 @ 0x132ee43a0] Format mp3 detected only with low score of 1, misdetection possible!
[mp3 @ 0x132ee43a0] Estimating duration from bitrate, this may be inaccurate
[out_0_0 @ 0x6000014ac370] 100 buffers queued in out_0_0, something may be wrong.
[out_0_0 @ 0x6000014ac370] 1000 buffers queued in out_0_0, something may be wrong.
size=     658kB time=00:02:48.23 bitrate=  32.0kbits/s speed= 380x
video:0kB audio:657kB subtitle:0kB other streams:0kB global headers:0kB muxing overhead: 0.033570%
1 / 1
ChatGPT
ChatGPT
I apologize for the inconvenience. It seems that there are some warnings and inaccurate duration estimations during the process. However, the command has completed successfully, and the resulting output file
output.mp3
should contain the concatenation of the audio files with one-second pauses between them.
The warnings about estimating duration from bitrate and the misdetection possibility for the MP3 format are common and can be ignored in this case.
You can check the resulting
output.mp3
file to verify if the desired one-second pauses have been inserted between each audio track. If you encounter any further issues or have additional questions, please let me know.
1 / 1
I want to try longer, it might be inserting a pause, but i want to try a 1 and a half second pause
1 / 1
ChatGPT
ChatGPT
To insert a pause of 1.5 seconds between each audio track during concatenation using FFmpeg, you can modify the
adelay
filter in the previous command. Here's an updated example command:
shell
Copy code
ffmpeg -f concat -i list.txt -filter_complex "[0:a]adelay=1500|1500,anullsrc=r=44100:cl=stereo,atrim=0:1.5[out];[out][0:a]concat=n=2:v=0:a=1[out]" -map "[out]" output.mp3
In this command, the
adelay
filter is set to
adelay=1500|1500
, which introduces a delay of 1500 milliseconds (1.5 seconds). The rest of the command remains the same.
Please note that the command assumes a sample rate of 44100 Hz for the audio files. If your files have a different sample rate, adjust the value
r=44100
in the
anullsrc
filter accordingly.
Give this updated command a try, and it should insert a pause of 1.5 seconds between each audio track during concatenation. Let me know if you have any further questions or issues.
1 / 1
nput #0, concat, from 'list.txt':
  Duration: N/A, start: 0.000000, bitrate: 32 kb/s
  Stream #0:0: Audio: mp3, 22050 Hz, mono, fltp, 32 kb/s
File 'output.mp3' already exists. Overwrite? [y/N] y
Stream mapping:
  Stream #0:0 (mp3float) -> adelay:default
  Stream #0:0 (mp3float) -> concat
  adelay:default -> Stream #0:0 (libmp3lame)
  concat:out:a0 -> Stream #0:1 (libmp3lame)
Press [q] to stop, [?] for help
[mp3 @ 0x11ef06280] Invalid audio stream. Exactly one MP3 audio stream is required.
[out#0/mp3 @ 0x600000fac0c0] Could not write header (incorrect codec parameters ?): Invalid argument
[aost#0:1/libmp3lame @ 0x11ef07c90] Error initializing output stream:
[libmp3lame @ 0x11ef07000] 3 frames left in the queue on closing
Conversion failed!
1 / 1
ChatGPT
ChatGPT
I apologize for the issues you're experiencing. It seems that there's an error related to the audio stream when using the
libmp3lame
encoder. To address this, we can try using the
aac
audio codec instead. Here's an updated command:
shell
Copy code
ffmpeg -f concat -i list.txt -filter_complex "[0:a]adelay=1500|1500,anullsrc=r=44100:cl=stereo,atrim=0:1.5[out];[out][0:a]concat=n=2:v=0:a=1[out]" -c:a aac -map "[out]" output.mp3
In this updated command, the
-c:a aac
option specifies that the output audio codec should be AAC instead of MP3. This change may resolve the issues you encountered with the
libmp3lame
encoder.
Please give this updated command a try, and let me know if it works for you. If you encounter any further issues or have additional questions, please don't hesitate to ask.
1 / 1
Input #0, concat, from 'list.txt':
  Duration: N/A, start: 0.000000, bitrate: 32 kb/s
  Stream #0:0: Audio: mp3, 22050 Hz, mono, fltp, 32 kb/s
Stream mapping:
  Stream #0:0 (mp3float) -> adelay:default
  Stream #0:0 (mp3float) -> concat
  adelay:default -> Stream #0:0 (aac)
  concat:out:a0 -> Stream #0:1 (aac)
Press [q] to stop, [?] for help
[mp3 @ 0x125e06cd0] Invalid audio stream. Exactly one MP3 audio stream is required.
[out#0/mp3 @ 0x60000201c480] Could not write header (incorrect codec parameters ?): Invalid argument
[aost#0:1/aac @ 0x125e086e0] Error initializing output stream:
[aac @ 0x125e07a50] Qavg: 65536.000
[aac @ 0x125e07a50] 2 frames left in the queue on closing
[aac @ 0x125e089b0] Qavg: nan
Conversion failed!
1 / 1
ChatGPT
ChatGPT
I apologize for the continued issues. It seems that there's still an error related to the audio stream when using the AAC codec. To address this, we can try a different approach by converting the audio to a WAV format with the desired pause duration and then converting it back to MP3. Here's an updated command:
shell
Copy code
ffmpeg -f concat -i list.txt -filter_complex "[0:a]adelay=1.5|1.5,apad=0.5,atrim=0:2[out]" -c:a pcm_s16le temp.wav
ffmpeg -i temp.wav -c:a libmp3lame -q:a 2 output.mp3
In this command, we first use the
adelay
filter to introduce a pause of 1.5 seconds between each audio track. Then, the
apad
filter is used to add a 0.5-second silence at the end of each track. The resulting audio is saved as
temp.wav
in PCM format.
After that, we use FFmpeg again to convert
temp.wav
to
output.mp3
using the
libmp3lame
encoder. The
-q:a 2
option specifies the desired audio quality, where a lower value indicates a higher quality.
Please give this updated command a try, and let me know if it works for you. If you encounter any further issues or have additional questions, please let me know.
1 / 1
temp.wav: Invalid data found when processing input
1 / 1
ChatGPT
ChatGPT
I apologize for the inconvenience. It seems that there's an issue with the audio data in the
temp.wav
file. Let's try a different approach using the
aevalsrc
filter to generate the desired pause duration. Here's an updated command:
shell
Copy code
ffmpeg -f concat -i list.txt -filter_complex "[0:a]adelay=1500|1500[delays];[delays][0:a]concat=n=2:v=0:a=1[out];[out]aevalsrc=0:d=1.5[silence];[silence][out]concat=n=2:v=0:a=1[out]" -c:a libmp3lame -q:a 2 output.mp3
In this updated command, we use the
adelay
filter to introduce a pause of 1.5 seconds between each audio track. Then, we use the
concat
filter to concatenate the delayed audio with the original audio. Next, we use the
aevalsrc
filter to generate 1.5 seconds of silence, and then we concatenate the silence with the delayed audio using the
concat
filter again.
Finally, we use the
libmp3lame
encoder to encode the resulting audio as an MP3 file with a quality setting of
-q:a 2
.
Please give this updated command a try, and let me know if it works for you. If you encounter any further issues or have additional questions, please let me know.
1 / 1
mp3 @ 0x1486051e0] Estimating duration from bitrate, this may be inaccurate
Input #0, concat, from 'list.txt':
  Duration: N/A, start: 0.000000, bitrate: 32 kb/s
  Stream #0:0: Audio: mp3, 22050 Hz, mono, fltp, 32 kb/s
[AVFilterGraph @ 0x6000024f0660] More input link labels specified for filter 'aevalsrc' than it has inputs: 1 > 0
[AVFilterGraph @ 0x6000024f0660] Error linking filters
Error initializing complex filters.
Invalid argument
1 / 1
ChatGPT
ChatGPT
I apologize for the inconvenience. It seems that there's an issue with the filtergraph configuration. Let's try a different approach using the
anullsrc
filter to generate the desired pause duration. Here's an updated command:
shell
Copy code
ffmpeg -f concat -i list.txt -filter_complex "[0:a]adelay=1500|1500[delays];[delays][0:a]concat=n=2:v=0:a=1[out];[out][0:a]anullsrc=r=22050:cl=mono:d=1.5[silence];[silence][out]concat=n=2:v=0:a=1[out]" -c:a libmp3lame -q:a 2 output.mp3
In this updated command, we use the
adelay
filter to introduce a pause of 1.5 seconds between each audio track. Then, we use the
concat
filter to concatenate the delayed audio with the original audio. Next, we use the
anullsrc
filter to generate 1.5 seconds of silence with the same audio format (sample rate and channel layout) as the input audio. Finally, we concatenate the silence with the delayed audio using the
concat
filter again.
The resulting audio is encoded as an MP3 file using the
libmp3lame
encoder with a quality setting of
-q:a 2
.
Please give this updated command a try, and let me know if it works for you. If you encounter any further issues or have additional questions, please let me know.
1 / 1
Input #0, concat, from 'list.txt':
  Duration: N/A, start: 0.000000, bitrate: 32 kb/s
  Stream #0:0: Audio: mp3, 22050 Hz, mono, fltp, 32 kb/s
[AVFilterGraph @ 0x600000dd4660] More input link labels specified for filter 'anullsrc' than it has inputs: 2 > 0
[AVFilterGraph @ 0x600000dd4660] Error linking filters
Error initializing complex filters.
Invalid argument
1 / 1
ChatGPT
ChatGPT
I apologize for the confusion. It seems that the filtergraph is not properly configured. Let's simplify the command and use the
aevalsrc
filter instead of
anullsrc
to generate silence. Here's an updated command:
shell
Copy code
ffmpeg -f concat -i list.txt -filter_complex "[0:a]adelay=1500|1500[delays];[delays][0:a]concat=n=2:v=0:a=1[out];[out][0:a]aevalsrc=0:s=22050:d=1.5[silence];[silence][out]concat=n=2:v=0:a=1[out]" -c:a libmp3lame -q:a 2 output.mp3
In this updated command, we use the
adelay
filter to introduce a pause of 1.5 seconds between each audio track. Then, we use the
concat
filter to concatenate the delayed audio with the original audio. Next, we use the
aevalsrc
filter to generate 1.5 seconds of silence with the same audio format (sample rate and channel layout) as the input audio. Finally, we concatenate the silence with the delayed audio using the
concat
filter again.
The resulting audio is encoded as an MP3 file using the
libmp3lame
encoder with a quality setting of
-q:a 2
.
Please give this updated command a try, and let me know if it works for you. If you encounter any further issues or have additional questions, please let me know.
1 / 1
Duration: N/A, start: 0.000000, bitrate: 32 kb/s
  Stream #0:0: Audio: mp3, 22050 Hz, mono, fltp, 32 kb/s
[AVFilterGraph @ 0x600000d48660] More input link labels specified for filter 'aevalsrc' than it has inputs: 2 > 0
[AVFilterGraph @ 0x600000d48660] Error linking filters
Error initializing complex filters.
Invalid argument
1 / 1
ChatGPT
ChatGPT
I apologize for the inconvenience. It seems that there is an issue with the filtergraph configuration. Let's simplify the command further and use the
adelay
filter alone to introduce the desired pause. Here's the updated command:
shell
Copy code
ffmpeg -f concat -i list.txt -filter_complex "[0:a]adelay=1500|1500[delays];[delays]concat=n=2:v=0:a=1[out]" -c:a libmp3lame -q:a 2 output.mp3
In this updated command, we use the
adelay
filter to introduce a pause of 1.5 seconds between each audio track. The
concat
filter is then used to concatenate the delayed audio tracks.
The resulting audio is encoded as an MP3 file using the
libmp3lame
encoder with a quality setting of
-q:a 2
.
Please give this updated command a try, and let me know if it works for you. If you encounter any further issues or have additional questions, please let me know.
1 / 1
Input #0, concat, from 'list.txt':
  Duration: N/A, start: 0.000000, bitrate: 32 kb/s
  Stream #0:0: Audio: mp3, 22050 Hz, mono, fltp, 32 kb/s
Cannot find a matching stream for unlabeled input pad 1 on filter Parsed_concat_1
1 / 1
ChatGPT
ChatGPT
Apologies for the ongoing issues. It seems that the
concat
filter is still causing problems. Let's try an alternative approach by using the
apad
filter to introduce the desired pause between audio tracks. Here's the updated command:
shell
Copy code
ffmpeg -f concat -i list.txt -filter_complex "[0:a]apad=pad_dur=1.5[a];[a][0:a]concat=n=2:v=0:a=1[out]" -c:a libmp3lame -q:a 2 output.mp3
In this updated command, we use the
apad
filter to add a pause of 1.5 seconds (
pad_dur=1.5
) to each audio track. Then, we concatenate the padded audio tracks using the
concat
filter.
The resulting audio is encoded as an MP3 file using the
libmp3lame
encoder with a quality setting of
-q:a 2
.
Please give this updated command a try, and let me know if it resolves the issue. If you encounter any further problems or have additional questions, feel free to ask.
1 / 1
Input #0, concat, from 'list.txt':
  Duration: N/A, start: 0.000000, bitrate: 32 kb/s
  Stream #0:0: Audio: mp3, 22050 Hz, mono, fltp, 32 kb/s
File 'output.mp3' already exists. Overwrite? [y/N] y
Filter concat:out:a0 has an unconnected output
1 / 1
ChatGPT
ChatGPT
Apologies for the inconvenience. It seems there's an issue with the
concat
filter. Let's try a different approach by using the
amix
filter instead. The
amix
filter can mix multiple audio streams together, allowing us to introduce a pause between them. Here's the updated command:
shell
Copy code
ffmpeg -f concat -i list.txt -filter_complex "[0:a]adelay=1500|1500|1500|1500|1500...[a];[a]amix=inputs=$(wc -l < list.txt):duration=longest:dropout_transition=3[out]" -c:a libmp3lame -q:a 2 output.mp3
In this updated command, we use the
adelay
filter to introduce a delay of 1.5 seconds (
1500
milliseconds) to each audio track. The number of
1500
values inside the brackets should match the number of audio tracks in
list.txt
.
Then, we use the
amix
filter to mix the delayed audio tracks together, ensuring the longest duration of the input streams is used (
duration=longest
). The
dropout_transition=3
parameter specifies a gradual transition when mixing the audio tracks.
Finally, the resulting mixed audio is encoded as an MP3 file using the
libmp3lame
encoder with a quality setting of
-q:a 2
.
Please give this updated command a try, and let me know if it resolves the issue. If you encounter any further problems or have additional questions, feel free to ask.
1 / 1
Input #0, concat, from 'list.txt':
  Duration: N/A, start: 0.000000, bitrate: 32 kb/s
  Stream #0:0: Audio: mp3, 22050 Hz, mono, fltp, 32 kb/s
Cannot find a matching stream for unlabeled input pad 1 on filter Parsed_amix_1
1 / 1
ChatGPT
ChatGPT
I apologize for the inconvenience. It seems there's an issue with the
amix
filter. Let's try an alternative approach by using the
apad
filter to insert the desired pause between audio files. Here's the updated command:
shell
Copy code
ffmpeg -f concat -i list.txt -filter_complex "[0:a]apad=pad_dur=1.5s[a];[a][0:a]concat=n=2:v=0:a=1[out]" -c:a libmp3lame -q:a 2 output.mp3
In this updated command, we use the
apad
filter to insert a pause of 1.5 seconds (
pad_dur=1.5s
) between each audio file. The
[a]
label is used to refer to the output of the
apad
filter.
Then, we use the
concat
filter to concatenate the original audio stream with the padded audio stream. The
n=2
parameter specifies that there are two audio inputs (original audio and padded audio), and
v=0
ensures no video stream is involved. The
[out]
label refers to the final output of the concatenation.
Finally, the resulting audio is encoded as an MP3 file using the
libmp3lame
encoder with a quality setting of
-q:a 2
.
Please give this updated command a try, and let me know if it resolves the issue. If you encounter any further problems or have additional questions, feel free to ask.
1 / 1
Input #0, concat, from 'list.txt':
  Duration: N/A, start: 0.000000, bitrate: 32 kb/s
  Stream #0:0: Audio: mp3, 22050 Hz, mono, fltp, 32 kb/s
File 'output.mp3' already exists. Overwrite? [y/N] y
Filter concat:out:a0 has an unconnected output
1 / 1
ChatGPT
ChatGPT
I apologize for the inconvenience. It seems there's still an issue with the concatenation process. Let's try a different approach by using the
adelay
filter to insert the desired pause between audio files. Here's the updated command:
shell
Copy code
ffmpeg -f concat -i list.txt -filter_complex "[0:a]adelay=1500|1500[a];[a][0:a]concat=n=2:v=0:a=1[out]" -c:a libmp3lame -q:a 2 output.mp3
In this updated command, we use the
adelay
filter to insert a delay of 1500 milliseconds (1.5 seconds) between each audio file. The
[a]
label is used to refer to the output of the
adelay
filter.
Then, we use the
concat
filter to concatenate the original audio stream with the delayed audio stream. The
n=2
parameter specifies that there are two audio inputs (original audio and delayed audio), and
v=0
ensures no video stream is involved. The
[out]
label refers to the final output of the concatenation.
Finally, the resulting audio is encoded as an MP3 file using the
libmp3lame
encoder with a quality setting of
-q:a 2
.
Please give this updated command a try, and let me know if it resolves the issue. If you encounter any further problems or have additional questions, feel free to ask.
1 / 1
Input #0, concat, from 'list.txt':
  Duration: N/A, start: 0.000000, bitrate: 32 kb/s
  Stream #0:0: Audio: mp3, 22050 Hz, mono, fltp, 32 kb/s
File 'output.mp3' already exists. Overwrite? [y/N] y
Filter concat:out:a0 has an unconnected output
1 / 1
ChatGPT
ChatGPT
I apologize for the inconvenience. It seems there's still an issue with the concatenation process. Let's try a different approach by using the
apad
filter to insert the desired pause between audio files. Here's the updated command:
shell
Copy code
ffmpeg -f concat -i list.txt -filter_complex "[0:a]apad=pad_dur=1.5[a];[a][0:a]concat=n=2:v=0:a=1[out]" -c:a libmp3lame -q:a 2 output.mp3
In this updated command, we use the
apad
filter to add a padding of 1.5 seconds between each audio file. The
pad_dur=1.5
parameter specifies the duration of the padding. The
[a]
label is used to refer to the output of the
apad
filter.
Then, we use the
concat
filter to concatenate the original audio stream with the padded audio stream. The
n=2
parameter specifies that there are two audio inputs (original audio and padded audio), and
v=0
ensures no video stream is involved. The
[out]
label refers to the final output of the concatenation.
Finally, the resulting audio is encoded as an MP3 file using the
libmp3lame
encoder with a quality setting of
-q:a 2
.
Please give this updated command a try, and let me know if it resolves the issue. If you encounter any further problems or have additional questions, feel free to ask.
1 / 1
Input #0, concat, from 'list.txt':
  Duration: N/A, start: 0.000000, bitrate: 32 kb/s
  Stream #0:0: Audio: mp3, 22050 Hz, mono, fltp, 32 kb/s
File 'output.mp3' already exists. Overwrite? [y/N] y
Filter concat:out:a0 has an unconnected output
1 / 1
ChatGPT
ChatGPT
Apologies for the inconvenience. It seems that the issue persists. Let's try another approach using the
aevalsrc
and
aeval
filters to generate silent audio segments of the desired duration, and then concatenate them with the original audio files.
Here's the updated command:
shell
Copy code
ffmpeg -f concat -i list.txt -filter_complex "aevalsrc=0:d=1.5[silence]; [0:a][silence][0:a]concat=n=3:v=0:a=1[out]" -c:a libmp3lame -q:a 2 output.mp3
In this command, we use the
aevalsrc
filter to generate a silent audio segment (
silence
) of 1.5 seconds. The
d=1.5
parameter specifies the duration of the silence.
Then, we use the
concat
filter to concatenate the original audio stream (
[0:a]
), the silence (
[silence]
), and the original audio stream again (
[0:a]
). The
n=3
parameter indicates that there are three audio inputs, and
v=0
ensures no video stream is involved. The
[out]
label refers to the final output of the concatenation.
Finally, the resulting audio is encoded as an MP3 file using the
libmp3lame
encoder with a quality setting of
-q:a 2
.
Please give this updated command a try, and let me know if it resolves the issue. If you encounter any further problems or have additional questions, feel free to ask.
1 / 1
Input #0, concat, from 'list.txt':
  Duration: N/A, start: 0.000000, bitrate: 32 kb/s
  Stream #0:0: Audio: mp3, 22050 Hz, mono, fltp, 32 kb/s
File 'output.mp3' already exists. Overwrite? [y/N] y
Filter concat:out:a0 has an unconnected output
1 / 1
ChatGPT
ChatGPT
Apologies for the recurring issue. It appears that the
concat
filter is still causing problems. Let's try an alternative method using the
apad
filter to insert the desired silence between the audio files. Here's the updated command:
shell
Copy code
ffmpeg -f concat -i list.txt -filter_complex "apad=pad_dur=1.5,atrim=0:0.1,asetpts=PTS-STARTPTS[a];[0:a]atrim=0.1,asetpts=PTS-STARTPTS[b];[a][b]concat=n=2:v=0:a=1[out]" -c:a libmp3lame -q:a 2 output.mp3
In this command, we use the
apad
filter to add a 1.5-second silence (
pad_dur=1.5
) between each audio file. The
atrim
filter is then used to extract the first 0.1 seconds of the silence (
atrim=0:0.1
). The
asetpts
filter ensures that the timestamps of the extracted audio and the original audio are set correctly.
Next, we apply the
atrim
and
asetpts
filters to the original audio file as well to extract the first 0.1 seconds of the audio stream.
Finally, the
concat
filter is used to concatenate the trimmed silence (
[a]
) and the trimmed original audio (
[b]
). The resulting audio stream is then encoded as an MP3 file using the
libmp3lame
encoder with a quality setting of
-q:a 2
.
Please give this updated command a try, and let me know if it resolves the issue. If you encounter any further problems or have additional questions, feel free to ask.
1 / 1
Input #0, concat, from 'list.txt':
  Duration: N/A, start: 0.000000, bitrate: 32 kb/s
  Stream #0:0: Audio: mp3, 22050 Hz, mono, fltp, 32 kb/s
File 'output.mp3' already exists. Overwrite? [y/N] y
Filter concat:out:a0 has an unconnected output
1 / 1
ChatGPT
ChatGPT
I apologize for the inconvenience. Let's try a different approach to achieve the desired result. We'll use the
sox
command-line tool instead of
ffmpeg
. Here's the updated command:
shell
Copy code
sox $(cat list.txt) output.mp3 pad 0 1.5
In this command, we're using
sox
to concatenate the audio files listed in
list.txt
. The
pad
effect is applied with a duration of 1.5 seconds (
pad 0 1.5
) between each audio file.
Please make sure you have
sox
installed on your system, and then give this command a try. It should concatenate the audio files with a 1.5-second pause between each file and save the result as
output.mp3
. Let me know if you encounter any issues or if you have any further questions!
1 / 1
bash-3.2$ sox $(cat list.txt) output.mp3 pad 0 1.5
sox FAIL formats: can't open input file `'fr/frbj.mp3'': No such file or directory
bash-3.2$ ls
1               en              fr              list.txt        output2.mp3     temp.wav
2               english         french          output.mp3      output3.mp3
bash-3.2$ pwd
/Users/mecha/audiobooks
1 / 1
ChatGPT
ChatGPT
It seems that the file paths in your
list.txt
file are not being read correctly by
sox
. The error message indicates that it can't find the input file
'fr/frbj.mp3'
.
To fix this issue, you can modify the
list.txt
file to include the full paths of the audio files instead of relative paths. Here's an example:
bash
Copy code
/Users/mecha/audiobooks/fr/frbj.mp3
/Users/mecha/audiobooks/en/enus.mp3
...
Make sure to replace
/Users/mecha/audiobooks
with the correct path to the directory containing your audio files.
Once you've updated the
list.txt
file with the correct paths, you can try running the
sox
command again:
shell
Copy code
sox $(cat list.txt) output.mp3 pad 0 1.5
This should concatenate the audio files with a 1.5-second pause between each file and save the result as
output.mp3
. Let me know if you need further assistance!
1 / 1
so this is no longer correct: file 'fr/fraa.mp3'
file 'en/enaa.mp3'
file 'fr/fraa.mp3'
file 'fr/frab.mp3'
1 / 1
ChatGPT
ChatGPT
Apologies for the confusion. If you want to use the
sox
command to concatenate the audio files listed in your
list.txt
file with a 1.5-second pause between each file, you can try the following command:
shell
Copy code
sox $(sed -e "s|^|'/Users/mecha/audiobooks/|" -e "s|$|'|" list.txt) output.mp3 pad 0 1.5
Replace
/Users/mecha/audiobooks
with the correct path to the directory containing your audio files.
The
sed
command is used to modify the paths in
list.txt
by adding the directory path and enclosing each path with single quotes. This ensures that the paths are correctly interpreted by
sox
. Then the modified command is passed to
sox
for concatenation.
Please give it a try and let me know if it works for you.
1 / 1
bash-3.2$ sox $(sed -e "s|^|'/Users/mecha/audiobooks/|" -e "s|$|'|" list.txt) output.mp3 pad 0 1.5
sox FAIL formats: can't open input file `'fr/frbj.mp3''': No such file or directory
1 / 1
ChatGPT
ChatGPT
Apologies for the issue. It seems there was an extra single quote in the command. Please try using the modified command without the extra single quote:
shell
Copy code
sox $(sed -e "s|^|/Users/mecha/audiobooks/|" -e "s|$|'|" list.txt) output.mp3 pad 0 1.5
This command should correctly add the directory path to each file listed in
list.txt
and apply the 1.5-second pad between each file during concatenation.
Please give it a try, and let me know if you encounter any further issues.
1 / 1
bash-3.2$ sox $(sed -e "s|^|/Users/mecha/audiobooks/|" -e "s|$|'|" list.txt) output.mp3 pad 0 1.5
sox FAIL formats: can't open input file `'fr/frbj.mp3''': No such file or directory
1 / 1
ChatGPT
ChatGPT
Apologies for the persistent issue. It seems there is an additional single quote character at the end of each file path in the
list.txt
file. Let's modify the command to remove the extra single quote:
shell
Copy code
sox $(sed -e "s|^|/Users/mecha/audiobooks/|" -e "s|'$||" list.txt) output.mp3 pad 0 1.5
This updated command will remove the trailing single quote from each file path before passing it to the
sox
command.
Please give it a try, and let me know if you encounter any further issues.
1 / 1
still the same error
1 / 1
ChatGPT
ChatGPT
I apologize for the inconvenience. It seems there might be an issue with the file paths or the format of the
list.txt
file. Let's try a different approach using a loop in the shell command:
shell
Copy code
while IFS= read -r file; do sox "/Users/mecha/audiobooks/$file" -t wav - pad 0 1.5; done < list.txt | sox -t wav - output.mp3
This command reads each file path from
list.txt
, adds the directory path
/Users/mecha/audiobooks/
to it, applies the padding of 1.5 seconds, and then pipes the output to
sox
to create the final
output.mp3
file.
Please give it a try, and let me know if it works for you.
1 / 1
It seems to work but there is a clipping sound
1 / 1
ChatGPT
ChatGPT
I apologize for the clipping sound. Clipping can occur when the audio signal exceeds the maximum amplitude that can be represented. To avoid clipping, we can apply a limiter effect in the SoX command to control the peak levels.
Here's an updated version of the command that includes a limiter effect:
shell
Copy code
while IFS= read -r file; do sox "/Users/mecha/audiobooks/$file" -t wav - pad 0 1.5; done < list.txt | sox -t wav - -t mp3 -b 32 output.mp3 compand 0.3,1 6:-70,-60,-20 -5 -90 0.2
This command applies the
compand
effect with specific parameters to control the audio levels and prevent clipping. It compresses the audio peaks above a certain threshold and then expands the overall audio to bring up the lower levels.
Please give it a try and let me know if it helps to reduce the clipping sound.
1 / 1
I don't think it worked, i want 2 seconds space as well
1 / 1
ChatGPT
ChatGPT
Apologies for the oversight. To add a 2-second pause between each audio file and avoid clipping, you can modify the SoX command as follows:
shell
Copy code
sox $(sed -e "s|^|'/Users/mecha/audiobooks/|" -e "s|$|' pad 0 2.0|" list.txt) output.mp3 compand 0.3,1 6:-70,-60,-20 -5 -90 0.2
This command uses
sed
to add the
pad 0 2.0
option to each input file in the list, which adds a 2-second pause between consecutive files. It then applies the
compand
effect to control the audio levels and prevent clipping.
Please give it a try, and let me know if it successfully adds the 2-second pause and reduces the clipping sound.
1 / 1
sox FAIL sox: Not enough input filenames specified
1 / 1
ChatGPT
ChatGPT
Apologies for the error. It seems there was a mistake in the SoX command. Please try the updated command below:
shell
Copy code
sed "s|^|'/Users/mecha/audiobooks/|" list.txt | tr '\n' ' ' | xargs sox --norm=-3 $(echo -n "output.mp3 pad 0 2 " && cat list.txt) norm -3
This command uses
sed
to add the full file path to each input file in the list, then
tr
to join the filenames with spaces, and finally
xargs
to pass the concatenated filenames to the SoX command. The
pad 0 2
option adds a 2-second pause between each audio file, and the
norm -3
option applies normalization to avoid clipping.
Please give it a try and let me know if it resolves the issue.
1 / 1
No output
1 / 1
ChatGPT
ChatGPT
I apologize for the inconvenience. Let's try a different approach. Please execute the following command:
shell
Copy code
sox $(awk '{printf "pad 0 2; %s; ", $0}' list.txt) output.mp3
This command uses
awk
to read the list of files and format them with the
pad 0 2;
prefix and
;
suffix, effectively adding a 2-second pause between each file. The resulting command is then passed to
sox
to concatenate the files and create the output file
output.mp3
.
Please give it a try and let me know if it works as expected.
1 / 1
sox FAIL sox: Not enough input filenames specified
                                                                                                                                      Usage summary: [gopts] [[fopts] infile]... [fopts] outfile [effect [effopt]]...
                                                                                                                                      SPECIAL FILENAMES (infile, outfile):
1 / 1
ChatGPT
ChatGPT
I apologize for the confusion. It seems there was an error in the command. Please try the following command instead:
shell
Copy code
sox $(printf "pad 0 2 %s " $(cat list.txt)) output.mp3
This command uses
printf
to format the list of files from
list.txt
with the
pad 0 2
prefix for each file, creating a 2-second pause between each file. The resulting command is then passed to
sox
to concatenate the files and create the output file
output.mp3
.
Please give it a try and let me know if it works as expected.
1 / 1
This is the formatting of list.txt: en/enbg.mp3
fr/frbg.mp3
fr/frbh.mp3
en/enbh.mp3
fr/frbh.mp3
fr/frbi.mp3
en/enbi.mp3
fr/frbi.mp3
fr/frbj.mp3
en/enbj.mp3
fr/frbj.mp3
en/enbj.mp3
fr/frbj.mp3
1 / 1
ChatGPT
ChatGPT
Apologies for the confusion. Please try the following command:
shell
Copy code
sox $(awk '{print "pad 0 2 " $0}' list.txt) output.mp3
This command uses
awk
to prepend
pad 0 2
before each file name in
list.txt
. It then passes the modified list of files to
sox
for concatenation, adding a 2-second pause between each file. The resulting output is saved as
output.mp3
.
Give this command a try, and let me know if it resolves the issue.
1 / 1
nope
1 / 1
ChatGPT
ChatGPT
I apologize for the inconvenience. Let's try a different approach using the
concat
filter in FFmpeg. Please follow these steps:
Create a text file named
input.txt
and paste the following content:
arduino
Copy code
file
'en/enbg.mp3'
file
'fr/frbg.mp3'
file
'fr/frbh.mp3'
file
'en/enbh.mp3'
file
'fr/frbh.mp3'
file
'fr/frbi.mp3'
file
'en/enbi.mp3'
file
'fr/frbi.mp3'
file
'fr/frbj.mp3'
file
'en/enbj.mp3'
file
'fr/frbj.mp3'
file
'en/enbj.mp3'
file
'fr/frbj.mp3'
Run the following command:
shell
Copy code
ffmpeg -f concat -i input.txt -filter_complex "apad=pad_dur=2" output.mp3
This command uses FFmpeg to concatenate the audio files listed in
input.txt
with a 2-second pad between each file. The resulting output is saved as
output.mp3
.
Please give it a try and let me know if it works for you.
1 / 1
This seemed to work but I changed 1024 to 2048 and it did nothing: ffmpeg -f concat -i input.txt -filter_complex "apad=pad_len=1024" output.mp3
1 / 1
ChatGPT
ChatGPT
I apologize for the confusion. The
pad_len
option in the
apad
filter specifies the length of the padding in samples, not in milliseconds. To add a 2-second (2048 milliseconds) pad, you need to calculate the number of samples.
The sample rate of your audio files is 22050 Hz, so to add a 2-second pad, you would multiply the sample rate by the duration:
2048 ms * 22050 samples/s = 45,056 samples
Please try the following command instead:
shell
Copy code
ffmpeg -f concat -i input.txt -filter_complex "apad=pad_len=45056" output.mp3
This command should add a 2-second pad of silence between each audio file. Make sure to replace
input.txt
with the correct path to your file list if necessary.
I apologize for the confusion earlier, and I hope this resolves the issue. Let me know if you have any further questions or concerns!
1 / 1
so what would be 1 second?
1 / 1
ChatGPT
ChatGPT
To add a 1-second (1000 milliseconds) pad of silence between each audio file, you need to calculate the number of samples based on the sample rate. Assuming a sample rate of 22050 Hz, you can calculate the number of samples as follows:
1000 ms * 22050 samples/s = 22,050 samples
Therefore, you can use the following command to add a 1-second pad of silence:
shell
Copy code
ffmpeg -f concat -i input.txt -filter_complex "apad=pad_len=22050" output.mp3
Make sure to adjust the
input.txt
file path if needed.
I apologize for the previous incorrect information and any confusion caused. Let me know if you have any further questions or need additional assistance!
1 / 1
not working
1 / 1
ChatGPT
ChatGPT
I apologize for the confusion. To add a 1-second (1000 milliseconds) pause between each audio file using
ffmpeg
, you can use the
adelay
filter. Here's an example command:
shell
Copy code
ffmpeg -f concat -i input.txt -filter_complex "[0:a]adelay=1000|1000|1000|1000|1000|1000|1000|1000|1000|1000[a]" -map "[a]" output.mp3
This command assumes that your input file list is stored in
input.txt
, and it adds a 1-second pause after each audio file. Adjust the number of
1000|
repetitions in the
adelay
filter to match the number of audio files in your
input.txt
file.
Please make sure to replace
input.txt
with the correct file path and adjust the output file name if needed.
If you're still experiencing issues, please provide the error message or any additional details so that I can assist you further.
1 / 1
no that is very ugly and I don't it will work
1 / 1
ChatGPT
ChatGPT
I apologize for the confusion. If you prefer a different approach, you can try using the
concat
demuxer with the
apad
filter to add a 1-second pause between each audio file. Here's an example command using
ffmpeg
:
shell
Copy code
ffmpeg -f concat -i input.txt -filter_complex "[0:a]apad=pad_dur=1[a]" -map "[a]" output.mp3
In this command,
input.txt
should contain the list of audio files you want to concatenate. The
apad
filter is used to add a 1-second (1-second duration) padding between each audio file.
Please replace
input.txt
with the correct file path and adjust the output file name if needed.
If you encounter any issues or have further questions, please let me know.
1 / 1
ok i don't need the silence anymore i put it into an mp3 file and i will add it to the input.txt file. could i get the command again to joint them together?
1 / 1
ChatGPT
ChatGPT
Certainly! If you have a separate MP3 file containing the desired silence, you can add it to the
input.txt
file and then use
ffmpeg
to concatenate all the audio files together. Here's the command:
shell
Copy code
ffmpeg -f concat -i input.txt -c copy output.mp3
Make sure to update
input.txt
with the correct file paths, including the silence MP3 file. The
-c copy
option will ensure that the audio streams are copied without re-encoding, resulting in a faster and lossless concatenation process.
After running the command, the output will be saved as
output.mp3
. Feel free to adjust the output file name as needed.
If you have any further questions or need additional assistance, please let me know!
1 / 1
Free Research Preview. ChatGPT may produce inaccurate information about people, places, or facts.
ChatGPT May 24 Version
ChatGPT

